<?xml version="1.0" encoding="UTF-8"?>
<svg width="240" height="600" version="1.1" xmlns="http://www.w3.org/2000/svg">
 <g stroke="#000" stroke-width="2">
  <path d="m113.5 123.71h107.62c4.3796 0 7.9054-3.5258 7.9054-7.9054v-24.086c0-4.3796-3.5258-7.9054-7.9054-7.9054h-107.62c-4.3796 0-7.9054 3.5258-7.9054 7.9054v24.086c0 4.3796 3.5258 7.9054 7.9054 7.9054z" fill="#77c3ff"/>
  <path d="m113.5 187.1h107.62c4.3796 0 7.9054-3.5258 7.9054-7.9054v-24.086c0-4.3796-3.5258-7.9054-7.9054-7.9054h-107.62c-4.3796 0-7.9054 3.5258-7.9054 7.9054v24.086c0 4.3796 3.5258 7.9054 7.9054 7.9054z" fill="#77fff9"/>
  <path d="m113.5 250.48h107.62c4.3796 0 7.9054-3.5258 7.9054-7.9054v-24.086c0-4.3796-3.5258-7.9054-7.9054-7.9054h-107.62c-4.3796 0-7.9054 3.5258-7.9054 7.9054v24.086c0 4.3796 3.5258 7.9054 7.9054 7.9054z" fill="#77ffb6"/>
  <path d="m113.5 313.87h107.62c4.3796 0 7.9054-3.5258 7.9054-7.9054v-24.086c0-4.3796-3.5258-7.9054-7.9054-7.9054h-107.62c-4.3796 0-7.9054 3.5258-7.9054 7.9054v24.086c0 4.3796 3.5258 7.9054 7.9054 7.9054z" fill="#7bff77"/>
  <path d="m113.5 377.26h107.62c4.3796 0 7.9054-3.5258 7.9054-7.9054v-24.086c0-4.3796-3.5258-7.9054-7.9054-7.9054h-107.62c-4.3796 0-7.9054 3.5258-7.9054 7.9054v24.086c0 4.3796 3.5258 7.9054 7.9054 7.9054z" fill="#beff77"/>
  <path d="m113.5 440.64h107.62c4.3796 0 7.9054-3.5258 7.9054-7.9054v-24.086c0-4.3796-3.5258-7.9054-7.9054-7.9054h-107.62c-4.3796 0-7.9054 3.5258-7.9054 7.9054v24.086c0 4.3796 3.5258 7.9054 7.9054 7.9054z" fill="#fffd77"/>
  <path d="m113.5 504.02h107.62c4.3796 0 7.9054-3.5258 7.9054-7.9054v-24.086c0-4.3796-3.5258-7.9054-7.9054-7.9054h-107.62c-4.3796 0-7.9054 3.5258-7.9054 7.9054v24.086c0 4.3796 3.5258 7.9054 7.9054 7.9054z" fill="#ffba77"/>
  <path d="m113.5 567.41h107.62c4.3796 0 7.9054-3.5258 7.9054-7.9054v-24.086c0-4.3796-3.5258-7.9054-7.9054-7.9054h-107.62c-4.3796 0-7.9054 3.5258-7.9054 7.9054v24.086c0 4.3796 3.5258 7.9054 7.9054 7.9054z" fill="#ebae85"/>
  <path d="m113.5 60.331h107.62c4.3796 0 7.9054-3.5258 7.9054-7.9054v-24.086c0-4.3796-3.5258-7.9054-7.9054-7.9054h-107.62c-4.3796 0-7.9054 3.5258-7.9054 7.9054v24.086c0 4.3796 3.5258 7.9054 7.9054 7.9054z" fill="#777fff"/>
  <path d="m62.274 10.996c0.2356 14.795 49.46 23.853 51.298 58.922h-102.59c-0.60396-34.332 51.21-45.124 51.298-58.922z" fill="#5863ff"/>
  <path d="m113.57 69.925c0-7.7031-25.381-7.9078-53.698-7.9078-28.316 0-48.898 0.20465-48.898 7.9078s22.981 13.955 51.298 13.955 51.298-6.2518 51.298-13.955z" fill="#959cff"/>
  <path d="m72.635 74.114c0 2.0501-4.7671 3.7119-10.648 3.7119-5.8806 0-10.648-1.6618-10.648-3.7119s4.7671-3.7119 10.648-3.7119c5.8806 0 10.648 1.6618 10.648 3.7119z" fill="#58b5ff"/>
  <path d="m102.46 71.997c0 2.0501-4.7671 3.7119-10.648 3.7119-5.8806 0-10.648-1.6618-10.648-3.7119s4.7671-3.7119 10.648-3.7119c5.8806 0 10.648 1.6618 10.648 3.7119z" fill="#d3d3d3"/>
  <path d="m45.172 72.037c0 2.0501-4.7671 3.7119-10.648 3.7119-5.8806 0-10.648-1.6618-10.648-3.7119s4.7671-3.7119 10.648-3.7119c5.8806 0 10.648 1.6618 10.648 3.7119z" fill="#a9a9a9"/>
  <path d="m66.097 74.697c0.23559 14.795 45.636 23.853 47.474 58.922h-102.59c-0.60396-34.332 47.386-45.124 47.474-58.922" fill="#58b5ff"/>
  <path d="m113.57 133.63c0-7.7031-25.381-7.9078-53.698-7.9078-28.316 0-48.898 0.20465-48.898 7.9078 0 7.7031 22.981 13.955 51.298 13.955s51.298-6.2518 51.298-13.955z" fill="#95d0ff"/>
  <path d="m70.681 137.55c0 1.562-3.7682 2.8282-8.4165 2.8282s-8.4165-1.2662-8.4165-2.8282 3.7682-2.8282 8.4165-2.8282 8.4165 1.2662 8.4165 2.8282z" fill="#58fff7"/>
  <path d="m96.09 136.55c0 1.562-3.7682 2.8282-8.4165 2.8282s-8.4165-1.2662-8.4165-2.8282 3.7682-2.8282 8.4165-2.8282 8.4165 1.2662 8.4165 2.8282z" fill="#90ee90"/>
  <path d="m55.058 131.99c0 1.562-3.7682 2.8282-8.4165 2.8282s-8.4165-1.2662-8.4165-2.8282 3.7682-2.8282 8.4165-2.8282 8.4165 1.2662 8.4165 2.8282z" fill="#add8e6"/>
  <path d="m34.573 135.14c0 1.562-3.7682 2.8282-8.4165 2.8282s-8.4165-1.2662-8.4165-2.8282 3.7682-2.8282 8.4165-2.8282 8.4165 1.2662 8.4165 2.8282z" fill="#f0e68c"/>
  <path d="m66.097 137.45c0.23559 14.795 45.636 23.853 47.474 58.922h-102.59c-0.60396-34.332 47.386-45.124 47.474-58.922" fill="#58fff7"/>
  <path d="m113.57 196.37c0-7.7031-25.381-7.9078-53.698-7.9078-28.316 0-48.898 0.20464-48.898 7.9078 0 7.7031 22.981 13.955 51.298 13.955s51.298-6.2518 51.298-13.955z" fill="#95fffa"/>
  <g fill="#58ffa5">
   <path d="m70.681 200.3c0 1.562-3.7682 2.8282-8.4165 2.8282s-8.4165-1.2662-8.4165-2.8282 3.7682-2.8282 8.4165-2.8282 8.4165 1.2662 8.4165 2.8282z"/>
   <path d="m93.652 202.95c0 1.562-3.7682 2.8282-8.4165 2.8282s-8.4165-1.2662-8.4165-2.8282 3.7682-2.8282 8.4165-2.8282 8.4165 1.2662 8.4165 2.8282z"/>
   <path d="m35.462 196.44c0 1.562-3.7682 2.8282-8.4165 2.8282s-8.4165-1.2662-8.4165-2.8282 3.7682-2.8282 8.4165-2.8282 8.4165 1.2662 8.4165 2.8282z"/>
   <path d="m105.83 195.24c0 1.562-3.7682 2.8282-8.4165 2.8282s-8.4165-1.2662-8.4165-2.8282 3.7682-2.8282 8.4165-2.8282 8.4165 1.2662 8.4165 2.8282z"/>
   <path d="m58.013 194.05c0 1.562-3.7682 2.8282-8.4165 2.8282s-8.4165-1.2662-8.4165-2.8282 3.7682-2.8282 8.4165-2.8282 8.4165 1.2662 8.4165 2.8282z"/>
   <path d="m85.196 194.2c0 1.562-3.7682 2.8282-8.4165 2.8282s-8.4165-1.2662-8.4165-2.8282 3.7682-2.8282 8.4165-2.8282 8.4165 1.2662 8.4165 2.8282z"/>
   <path d="m49.807 203.95c0 1.562-3.7682 2.8282-8.4165 2.8282s-8.4165-1.2662-8.4165-2.8282 3.7682-2.8282 8.4165-2.8282 8.4165 1.2662 8.4165 2.8282z"/>
   <path d="m66.097 200.53c0.23559 14.795 45.636 23.853 47.474 58.922h-102.59c-0.60396-34.332 47.386-45.124 47.474-58.922"/>
  </g>
  <path d="m113.57 259.45c0-7.7031-25.381-7.9078-53.698-7.9078-28.316 0-48.898 0.20465-48.898 7.9078 0 7.7031 22.981 13.955 51.298 13.955s51.298-6.2518 51.298-13.955z" fill="#95ffc6"/>
  <g fill="#5dff58">
   <path d="m70.681 263.38c0 1.562-3.7682 2.8282-8.4165 2.8282s-8.4165-1.2662-8.4165-2.8282 3.7682-2.8282 8.4165-2.8282 8.4165 1.2662 8.4165 2.8282z"/>
   <path d="m93.652 266.03c0 1.562-3.7682 2.8282-8.4165 2.8282s-8.4165-1.2662-8.4165-2.8282 3.7682-2.8282 8.4165-2.8282 8.4165 1.2662 8.4165 2.8282z"/>
   <path d="m35.462 259.52c0 1.562-3.7682 2.8282-8.4165 2.8282s-8.4165-1.2662-8.4165-2.8282 3.7682-2.8282 8.4165-2.8282 8.4165 1.2662 8.4165 2.8282z"/>
   <path d="m105.83 258.32c0 1.562-3.7682 2.8282-8.4165 2.8282s-8.4165-1.2662-8.4165-2.8282 3.7682-2.8282 8.4165-2.8282 8.4165 1.2662 8.4165 2.8282z"/>
   <path d="m58.013 257.13c0 1.562-3.7682 2.8282-8.4165 2.8282s-8.4165-1.2662-8.4165-2.8282 3.7682-2.8282 8.4165-2.8282 8.4165 1.2662 8.4165 2.8282z"/>
   <path d="m85.196 257.28c0 1.562-3.7682 2.8282-8.4165 2.8282s-8.4165-1.2662-8.4165-2.8282 3.7682-2.8282 8.4165-2.8282 8.4165 1.2662 8.4165 2.8282z"/>
   <path d="m49.807 267.03c0 1.562-3.7682 2.8282-8.4165 2.8282s-8.4165-1.2662-8.4165-2.8282 3.7682-2.8282 8.4165-2.8282 8.4165 1.2662 8.4165 2.8282z"/>
   <path d="m66.097 263.77c0.23559 14.795 45.636 23.853 47.474 58.922h-102.59c-0.60396-34.332 47.386-45.124 47.474-58.922"/>
  </g>
  <path d="m113.57 322.69c0-7.7031-25.381-7.9078-53.698-7.9078-28.316 0-48.898 0.20464-48.898 7.9078 0 7.7031 22.981 13.955 51.298 13.955s51.298-6.2518 51.298-13.955z" fill="#99ff95"/>
  <g fill="#b0ff58">
   <path d="m70.681 326.62c0 1.562-3.7682 2.8282-8.4165 2.8282s-8.4165-1.2662-8.4165-2.8282 3.7682-2.8282 8.4165-2.8282 8.4165 1.2662 8.4165 2.8282z"/>
   <path d="m93.652 329.27c0 1.562-3.7682 2.8282-8.4165 2.8282s-8.4165-1.2662-8.4165-2.8282 3.7682-2.8282 8.4165-2.8282 8.4165 1.2662 8.4165 2.8282z"/>
   <path d="m35.462 322.76c0 1.562-3.7682 2.8282-8.4165 2.8282s-8.4165-1.2662-8.4165-2.8282 3.7682-2.8282 8.4165-2.8282 8.4165 1.2662 8.4165 2.8282z"/>
   <path d="m105.83 321.56c0 1.562-3.7682 2.8282-8.4165 2.8282s-8.4165-1.2662-8.4165-2.8282 3.7682-2.8282 8.4165-2.8282 8.4165 1.2662 8.4165 2.8282z"/>
   <path d="m58.013 320.37c0 1.562-3.7682 2.8282-8.4165 2.8282s-8.4165-1.2662-8.4165-2.8282 3.7682-2.8282 8.4165-2.8282 8.4165 1.2662 8.4165 2.8282z"/>
   <path d="m85.196 320.52c0 1.562-3.7682 2.8282-8.4165 2.8282s-8.4165-1.2662-8.4165-2.8282 3.7682-2.8282 8.4165-2.8282 8.4165 1.2662 8.4165 2.8282z"/>
   <path d="m49.807 330.27c0 1.562-3.7682 2.8282-8.4165 2.8282s-8.4165-1.2662-8.4165-2.8282 3.7682-2.8282 8.4165-2.8282 8.4165 1.2662 8.4165 2.8282z"/>
   <path d="m66.097 327.01c0.23559 14.795 45.636 23.853 47.474 58.922h-102.59c-0.60396-34.332 47.386-45.124 47.474-58.922"/>
  </g>
  <path d="m113.57 385.93c0-7.7031-25.381-7.9078-53.698-7.9078-28.316 0-48.898 0.20465-48.898 7.9078s22.981 13.955 51.298 13.955 51.298-6.2518 51.298-13.955z" fill="#cdff95"/>
  <g fill="#fffd58">
   <path d="m70.681 389.86c0 1.562-3.7682 2.8282-8.4165 2.8282s-8.4165-1.2662-8.4165-2.8282 3.7682-2.8282 8.4165-2.8282 8.4165 1.2662 8.4165 2.8282z"/>
   <path d="m93.652 392.51c0 1.562-3.7682 2.8282-8.4165 2.8282s-8.4165-1.2662-8.4165-2.8282 3.7682-2.8282 8.4165-2.8282 8.4165 1.2662 8.4165 2.8282z"/>
   <path d="m35.462 386c0 1.562-3.7682 2.8282-8.4165 2.8282s-8.4165-1.2662-8.4165-2.8282 3.7682-2.8282 8.4165-2.8282 8.4165 1.2662 8.4165 2.8282z"/>
   <path d="m105.83 384.8c0 1.562-3.7682 2.8282-8.4165 2.8282s-8.4165-1.2662-8.4165-2.8282 3.7682-2.8282 8.4165-2.8282 8.4165 1.2662 8.4165 2.8282z"/>
   <path d="m58.013 383.62c0 1.562-3.7682 2.8282-8.4165 2.8282s-8.4165-1.2662-8.4165-2.8282 3.7682-2.8282 8.4165-2.8282 8.4165 1.2662 8.4165 2.8282z"/>
   <path d="m85.196 383.77c0 1.562-3.7682 2.8282-8.4165 2.8282s-8.4165-1.2662-8.4165-2.8282 3.7682-2.8282 8.4165-2.8282 8.4165 1.2662 8.4165 2.8282z"/>
   <path d="m49.807 393.51c0 1.562-3.7682 2.8282-8.4165 2.8282s-8.4165-1.2662-8.4165-2.8282 3.7682-2.8282 8.4165-2.8282 8.4165 1.2662 8.4165 2.8282z"/>
   <path d="m66.097 390.25c0.23559 14.795 45.636 23.853 47.474 58.922h-102.59c-0.60396-34.332 47.386-45.124 47.474-58.922"/>
  </g>
  <path d="m113.57 449.17c0-7.7031-25.381-7.9078-53.698-7.9078-28.316 0-48.898 0.20465-48.898 7.9078s22.981 13.955 51.298 13.955 51.298-6.2518 51.298-13.955z" fill="#fffe95"/>
  <g fill="#ffaa58">
   <path d="m70.681 453.11c0 1.562-3.7682 2.8282-8.4165 2.8282s-8.4165-1.2662-8.4165-2.8282 3.7682-2.8282 8.4165-2.8282 8.4165 1.2662 8.4165 2.8282z"/>
   <path d="m93.652 455.75c0 1.562-3.7682 2.8282-8.4165 2.8282s-8.4165-1.2662-8.4165-2.8282 3.7682-2.8282 8.4165-2.8282 8.4165 1.2662 8.4165 2.8282z"/>
   <path d="m35.462 449.24c0 1.562-3.7682 2.8282-8.4165 2.8282s-8.4165-1.2662-8.4165-2.8282 3.7682-2.8282 8.4165-2.8282 8.4165 1.2662 8.4165 2.8282z"/>
   <path d="m105.83 448.04c0 1.562-3.7682 2.8282-8.4165 2.8282s-8.4165-1.2662-8.4165-2.8282 3.7682-2.8282 8.4165-2.8282 8.4165 1.2662 8.4165 2.8282z"/>
   <path d="m58.013 446.86c0 1.562-3.7682 2.8282-8.4165 2.8282s-8.4165-1.2662-8.4165-2.8282 3.7682-2.8282 8.4165-2.8282 8.4165 1.2662 8.4165 2.8282z"/>
   <path d="m85.196 447.01c0 1.562-3.7682 2.8282-8.4165 2.8282s-8.4165-1.2662-8.4165-2.8282 3.7682-2.8282 8.4165-2.8282 8.4165 1.2662 8.4165 2.8282z"/>
   <path d="m49.807 456.75c0 1.562-3.7682 2.8282-8.4165 2.8282s-8.4165-1.2662-8.4165-2.8282 3.7682-2.8282 8.4165-2.8282 8.4165 1.2662 8.4165 2.8282z"/>
   <path d="m66.097 453.5c0.23559 14.795 45.636 23.853 47.474 58.922h-102.59c-0.60396-34.332 47.386-45.124 47.474-58.922"/>
  </g>
  <path d="m113.57 512.41c0-7.7031-25.381-7.9078-53.698-7.9078-28.316 0-48.898 0.20465-48.898 7.9078 0 7.7031 22.981 13.955 51.298 13.955s51.298-6.2518 51.298-13.955z" fill="#ffca95"/>
  <g fill="#e28d54">
   <path d="m70.681 516.35c0 1.562-3.7682 2.8282-8.4165 2.8282s-8.4165-1.2662-8.4165-2.8282 3.7682-2.8282 8.4165-2.8282 8.4165 1.2662 8.4165 2.8282z"/>
   <path d="m93.652 518.99c0 1.562-3.7682 2.8282-8.4165 2.8282s-8.4165-1.2662-8.4165-2.8282 3.7682-2.8282 8.4165-2.8282 8.4165 1.2662 8.4165 2.8282z"/>
   <path d="m35.462 512.48c0 1.562-3.7682 2.8282-8.4165 2.8282s-8.4165-1.2662-8.4165-2.8282 3.7682-2.8282 8.4165-2.8282 8.4165 1.2662 8.4165 2.8282z"/>
   <path d="m105.83 511.29c0 1.562-3.7682 2.8282-8.4165 2.8282s-8.4165-1.2662-8.4165-2.8282 3.7682-2.8282 8.4165-2.8282 8.4165 1.2662 8.4165 2.8282z"/>
   <path d="m58.013 510.1c0 1.562-3.7682 2.8282-8.4165 2.8282s-8.4165-1.2662-8.4165-2.8282 3.7682-2.8282 8.4165-2.8282 8.4165 1.2662 8.4165 2.8282z"/>
   <path d="m85.196 510.25c0 1.562-3.7682 2.8282-8.4165 2.8282s-8.4165-1.2662-8.4165-2.8282 3.7682-2.8282 8.4165-2.8282 8.4165 1.2662 8.4165 2.8282z"/>
   <path d="m49.807 519.99c0 1.562-3.7682 2.8282-8.4165 2.8282s-8.4165-1.2662-8.4165-2.8282 3.7682-2.8282 8.4165-2.8282 8.4165 1.2662 8.4165 2.8282z"/>
   <path d="m66.097 516.13c0.23559 14.795 45.636 23.853 47.474 58.922h-102.59c-0.60396-34.332 47.386-45.124 47.474-58.922"/>
  </g>
  <path d="m113.57 575.05c0-7.7031-25.381-7.9078-53.698-7.9078-28.316 0-48.898 0.20464-48.898 7.9078 0 7.7031 22.981 13.955 51.298 13.955s51.298-6.2518 51.298-13.955z" fill="#ebae85"/>
 </g>
 <g font-family="'Liberation Sans'" font-size="20px" font-weight="bold" text-anchor="middle">
  <switch transform="translate(167,48)">
   <text systemLanguage="af"><tspan>Lewe</tspan></text>
   <text systemLanguage="ban"><tspan>Urip</tspan></text>
   <text systemLanguage="br"><tspan>Buhez</tspan></text>
   <text systemLanguage="bs"><tspan>Život</tspan></text>
   <text systemLanguage="cs"><tspan>život</tspan></text>
   <text systemLanguage="de"><tspan>Lebewesen</tspan></text>
   <text systemLanguage="en"><tspan>Life</tspan></text>
   <text systemLanguage="es"><tspan>Vida</tspan></text>
   <text systemLanguage="fr"><tspan>Vie</tspan></text>
   <text systemLanguage="gl"><tspan>Vida</tspan></text>
   <text systemLanguage="ku"><tspan>Jiyan</tspan></text>
   <text systemLanguage="la"><tspan>Imperium</tspan></text>
   <text systemLanguage="my"><tspan>သက်ရှိ</tspan></text>
   <text systemLanguage="si"><tspan>ජීවය</tspan></text>
   <text systemLanguage="sk"><tspan>život</tspan></text>
   <text systemLanguage="tl"><tspan>Buhay</tspan></text>
   <text systemLanguage="uz"><tspan>Hayot</tspan></text>
   <text systemLanguage="xmf"><tspan>თელარა</tspan></text>
   <text><tspan>Life</tspan></text>
  </switch>
  <switch transform="translate(167,111)">
   <text systemLanguage="af"><tspan>Domein</tspan></text>
   <text systemLanguage="ban"><tspan>Domain</tspan></text>
   <text systemLanguage="br"><tspan>Riezad</tspan></text>
   <text systemLanguage="bs"><tspan>Domen</tspan></text>
   <text systemLanguage="cs"><tspan>doména</tspan></text>
   <text systemLanguage="de"><tspan>Domäne</tspan></text>
   <text systemLanguage="en"><tspan>Domain</tspan></text>
   <text systemLanguage="es"><tspan>Dominio</tspan></text>
   <text systemLanguage="fr"><tspan>Domaine</tspan></text>
   <text systemLanguage="gl"><tspan>Dominio</tspan></text>
   <text systemLanguage="ku"><tspan>Sercîhan</tspan></text>
   <text systemLanguage="la"><tspan>Regio</tspan></text>
   <text systemLanguage="my"><tspan>နယ်ပယ်</tspan></text>
   <text systemLanguage="si"><tspan>වසම</tspan></text>
   <text systemLanguage="sk"><tspan>doména</tspan></text>
   <text systemLanguage="tl"><tspan>Dominyo</tspan></text>
   <text systemLanguage="uz"><tspan>Domen</tspan></text>
   <text systemLanguage="xmf"><tspan>დომენი</tspan></text>
   <text><tspan>Domain</tspan></text>
  </switch>
  <switch transform="translate(167,175)">
   <text systemLanguage="af"><tspan>Koninkryk</tspan></text>
   <text systemLanguage="ban"><tspan>Kerajaan</tspan></text>
   <text systemLanguage="br"><tspan>Renad</tspan></text>
   <text systemLanguage="bs"><tspan>Carstvo</tspan></text>
   <text systemLanguage="cs"><tspan>říše</tspan></text>
   <text systemLanguage="de"><tspan>Reich</tspan></text>
   <text systemLanguage="en"><tspan>Kingdom</tspan></text>
   <text systemLanguage="es"><tspan>Reino</tspan></text>
   <text systemLanguage="fr"><tspan>Règne</tspan></text>
   <text systemLanguage="gl"><tspan>Reino</tspan></text>
   <text systemLanguage="ku"><tspan>Cîhan</tspan></text>
   <text systemLanguage="la"><tspan>Regnum</tspan></text>
   <text systemLanguage="my"><tspan>လောက</tspan></text>
   <text systemLanguage="si"><tspan>රාජධානිය</tspan></text>
   <text systemLanguage="sk"><tspan>ríša</tspan></text>
   <text systemLanguage="tl"><tspan>Kaharian</tspan></text>
   <text systemLanguage="uz"><tspan>Olam</tspan></text>
   <text systemLanguage="xmf"><tspan>ომაფე</tspan></text>
   <text><tspan>Kingdom</tspan></text>
  </switch>
  <switch transform="translate(167,238)">
   <text systemLanguage="af"><tspan>Filum</tspan></text>
   <text systemLanguage="ban"><tspan>Pilum</tspan></text>
   <text systemLanguage="br"><tspan>Skourrad</tspan></text>
   <text systemLanguage="bs"><tspan>Koljeno</tspan></text>
   <text systemLanguage="cs"><tspan>kmen</tspan></text>
   <text systemLanguage="de"><tspan>Stamm</tspan></text>
   <text systemLanguage="en"><tspan>Phylum</tspan></text>
   <text systemLanguage="es"><tspan>Filo</tspan></text>
   <text systemLanguage="fr"><tspan>Division</tspan></text>
   <text systemLanguage="gl"><tspan>Filo</tspan></text>
   <text systemLanguage="ku"><tspan>Filûm</tspan></text>
   <text systemLanguage="la"><tspan>Phylum</tspan></text>
   <text systemLanguage="my"><tspan>မျိုးပေါင်းစု</tspan></text>
   <text systemLanguage="si"><tspan>වංශය</tspan></text>
   <text systemLanguage="sk"><tspan>kmeň</tspan></text>
   <text systemLanguage="tl"><tspan>Phylum</tspan></text>
   <text systemLanguage="uz"><tspan>Tip</tspan></text>
   <text systemLanguage="xmf"><tspan>ტიპი</tspan></text>
   <text><tspan>Phylum</tspan></text>
  </switch>
  <switch transform="translate(167,302)">
   <text systemLanguage="af"><tspan>Klas</tspan></text>
   <text systemLanguage="ban"><tspan>Kelas</tspan></text>
   <text systemLanguage="br"><tspan>Kevrennad</tspan></text>
   <text systemLanguage="bs"><tspan>Klasa</tspan></text>
   <text systemLanguage="cs"><tspan>třída</tspan></text>
   <text systemLanguage="bs"><tspan>Klasse</tspan></text>
   <text systemLanguage="en"><tspan>Class</tspan></text>
   <text systemLanguage="es"><tspan>Clase</tspan></text>
   <text systemLanguage="fr"><tspan>Classe</tspan></text>
   <text systemLanguage="gl"><tspan>Clase</tspan></text>
   <text systemLanguage="ku"><tspan>Çîn</tspan></text>
   <text systemLanguage="la"><tspan>Classis</tspan></text>
   <text systemLanguage="my"><tspan>မျိုးပေါင်း</tspan></text>
   <text systemLanguage="si"><tspan>වර්ගය</tspan></text>
   <text systemLanguage="sk"><tspan>trieda</tspan></text>
   <text systemLanguage="tl"><tspan>Klase</tspan></text>
   <text systemLanguage="uz"><tspan>Sinf</tspan></text>
   <text systemLanguage="xmf"><tspan>კლასი</tspan></text>
   <text><tspan>Class</tspan></text>
  </switch>
  <switch transform="translate(167,366)">
   <text systemLanguage="af"><tspan>Orde</tspan></text>
   <text systemLanguage="ban"><tspan>Ordo</tspan></text>
   <text systemLanguage="br"><tspan>Urzhiad</tspan></text>
   <text systemLanguage="bs"><tspan>Red</tspan></text>
   <text systemLanguage="cs"><tspan>řád</tspan></text>
   <text systemLanguage="de"><tspan>Familie</tspan></text>
   <text systemLanguage="en"><tspan>Order</tspan></text>
   <text systemLanguage="es"><tspan>Orden</tspan></text>
   <text systemLanguage="fr"><tspan>Ordre</tspan></text>
   <text systemLanguage="gl"><tspan>Orde</tspan></text>
   <text systemLanguage="ku"><tspan>Kom</tspan></text>
   <text systemLanguage="la"><tspan>Ordo</tspan></text>
   <text systemLanguage="my"><tspan>မျိုးစဉ်</tspan></text>
   <text systemLanguage="si"><tspan>ගෝත්‍රය</tspan></text>
   <text systemLanguage="sk"><tspan>rad</tspan></text>
   <text systemLanguage="tl"><tspan>Orden</tspan></text>
   <text systemLanguage="uz"><tspan>Otryad</tspan></text>
   <text systemLanguage="xmf"><tspan>რანწკი</tspan></text>
   <text><tspan>Order</tspan></text>
  </switch>
  <switch transform="translate(167,427)">
   <text systemLanguage="af"><tspan>Familie</tspan></text>
   <text systemLanguage="ban"><tspan>Kaluwarga</tspan></text>
   <text systemLanguage="br"><tspan>Kerentiad</tspan></text>
   <text systemLanguage="bs"><tspan>Porodica</tspan></text>
   <text systemLanguage="cs"><tspan>čeleď</tspan></text>
   <text systemLanguage="de"><tspan>Gattung</tspan></text>
   <text systemLanguage="en"><tspan>Family</tspan></text>
   <text systemLanguage="es"><tspan>Familia</tspan></text>
   <text systemLanguage="fr"><tspan>Famille</tspan></text>
   <text systemLanguage="gl"><tspan>Familia</tspan></text>
   <text systemLanguage="ku"><tspan>Famîle</tspan></text>
   <text systemLanguage="la"><tspan>Familia</tspan></text>
   <text systemLanguage="my"><tspan>မျိုးရင်း</tspan></text>
   <text systemLanguage="si"><tspan>කුලය</tspan></text>
   <text systemLanguage="sk"><tspan>čeľaď</tspan></text>
   <text systemLanguage="tl"><tspan>Pamilya</tspan></text>
   <text systemLanguage="uz"><tspan>Oila</tspan></text>
   <text systemLanguage="xmf"><tspan>ფანია</tspan></text>
   <text><tspan>Family</tspan></text>
  </switch>
  <switch transform="translate(167,491)">
   <text systemLanguage="af"><tspan>Genus</tspan></text>
   <text systemLanguage="ban"><tspan>Génus</tspan></text>
   <text systemLanguage="br"><tspan>Genad</tspan></text>
   <text systemLanguage="bs"><tspan>Rod</tspan></text>
   <text systemLanguage="cs"><tspan>rod</tspan></text>
   <text systemLanguage="de"><tspan>Ordnung</tspan></text>
   <text systemLanguage="en"><tspan>Genus</tspan></text>
   <text systemLanguage="es"><tspan>Género</tspan></text>
   <text systemLanguage="fr"><tspan>Genre</tspan></text>
   <text systemLanguage="gl"><tspan>Xénero</tspan></text>
   <text systemLanguage="ku"><tspan>Cins</tspan></text>
   <text systemLanguage="la"><tspan>Genus</tspan></text>
   <text systemLanguage="my"><tspan>မျိုးစု</tspan></text>
   <text systemLanguage="si"><tspan>ගණය</tspan></text>
   <text systemLanguage="sk"><tspan>rod</tspan></text>
   <text systemLanguage="tl"><tspan>Genus</tspan></text>
   <text systemLanguage="uz"><tspan>Urugʻ</tspan></text>
   <text systemLanguage="xmf"><tspan>გვარი</tspan></text>
   <text><tspan>Genus</tspan></text>
  </switch>
  <switch transform="translate(167 554.25)">
   <text systemLanguage="af"><tspan>Spesie</tspan></text>
   <text systemLanguage="ban"><tspan>Spésiés</tspan></text>
   <text systemLanguage="br"><tspan>Spesad</tspan></text>
   <text systemLanguage="bs"><tspan>Vrsta</tspan></text>
   <text systemLanguage="cs"><tspan>druh</tspan></text>
   <text systemLanguage="de"><tspan>Art</tspan></text>
   <text systemLanguage="en"><tspan>Species</tspan></text>
   <text systemLanguage="es"><tspan>Especie</tspan></text>
   <text systemLanguage="fr"><tspan>Espèce</tspan></text>
   <text systemLanguage="gl"><tspan>Especie</tspan></text>
   <text systemLanguage="ku"><tspan>Cure</tspan></text>
   <text systemLanguage="la"><tspan>Species</tspan></text>
   <text systemLanguage="my"><tspan>မျိုးစိတ်</tspan></text>
   <text systemLanguage="si"><tspan>විශේෂය</tspan></text>
   <text systemLanguage="sk"><tspan>druh</tspan></text>
   <text systemLanguage="tl"><tspan>Espesye</tspan></text>
   <text systemLanguage="uz"><tspan>Tur</tspan></text>
   <text systemLanguage="xmf"><tspan>გვარობა</tspan></text>
   <text><tspan>Species</tspan></text>
  </switch>
 </g>
</svg>
